<svg xmlns="http://www.w3.org/2000/svg" id="Layer_1" data-name="Layer 1" viewBox="0 0 509.52 254.56"><defs/><path d="M579.92 356.75c-3.12 2.42-19.35 14.42-32 13-13.76-1.54-36.48-33.14-41.49-42.52l-.43-.8c-4.26-8-7.94-14.91-15.65-15.27-16.19-.76-35 2.56-51.36 6.63 2.05-4.1 4.42-8.55 7-13.1.6.05 1.21.1 1.82.1a23.2 23.2 0 0 0 23.08-21.23c8.48-.74 42.92-5 58.3-26 6.22-8.5-19.75-45.31-28.58-57.34-.08-3.53-1.78-5.07-3.24-5.74a5.85 5.85 0 0 0-1.26-.34l6.7-11.43c2.39-4.09-4-7.83-6.41-9.24s-8.79-5.15-11.19-1.07l-2.77 4.6c-3.28.52-7.38 4.29-9.44 7.41-2.55 3.86-2.9 7.61-1.07 10.53l-2.49 4.25c-2.45 4.18-2.43 6.37-2.41 8.3a8.28 8.28 0 0 1-.87 4.25l-6.94 14.86a3.79 3.79 0 0 0 1.53 4.91l2.34 1.37a3.77 3.77 0 0 0 1.93.53 3.82 3.82 0 0 0 3.1-1.59c2.27-3.16 8.06-11.23 9.57-13.32a8.18 8.18 0 0 1 3.28-2.84c1.7-.93 3.62-2 6.06-6.16l.48-.81a1.69 1.69 0 0 1 1.34 0 1.88 1.88 0 0 1 1.06 1l9.86 22.08a61.74 61.74 0 0 0 1.89 16.78c-9.5-3.69-18.14.17-25.46 6.51-3.4-3.16-9.05-5-15-4.59-6.5.41-11.71 3.3-14.58 8a19.81 19.81 0 0 1-5.89-1.38c-7.36-20.13-17.4-24.54-26.46-25.14-4.49-7.26-24.6-35.83-57.57-25.53-3.94 1.27-7.13 4.92-9 10.29-5 14.3-12.78 43.83-10.62 64.28-.57 2.43-3.31 15.43 1 22.17a8.68 8.68 0 0 0 5.85 4.07 23.11 23.11 0 0 0 4.51.48 12.45 12.45 0 0 0 8.26-2.71c3.59-3 4.17-7.59 4.26-9.25a9.55 9.55 0 0 0 .67-7.65c-1-2.53-4.4-6.72-10.08-8.64-.6-7.58 3.55-19.37 11.08-31.31a96.06 96.06 0 0 0 13.11-15.9A42 42 0 0 0 387.5 245a77.24 77.24 0 0 0 .54 34.37c-4.34 13.26-9.41 31.58-10.78 48.17-6.53 5.29-10.25 15.18-9.08 24.53a25.77 25.77 0 0 0 1.54 6.06c-10.47 6-13.73 17.62-16.61 28-.74 2.67-1.44 5.08-2.17 7.21.27-9.91-3.24-17.6-18.44-25.65s-28.91-26.87-35.66-37.33a9.69 9.69 0 0 0-8-4.43 9.83 9.83 0 0 0-8.1 4.15c-8.49 12.22-23.91 38.22-29.6 53.26l-.68 1.81 9.23 4.35a3.81 3.81 0 0 0 4.83-1.64c14-21.91 22.67-26 26.6-26.44a7 7 0 0 1 6 2.11c5.91 5.65 11.23 16.23 16.38 26.46 7 13.94 14.24 28.34 24.09 33.27a19.55 19.55 0 0 0 8.8 1.93c21.26 0 53-27 68.28-54.6 22.74-2.81 48.9-19 63.85-33.48.35 6.81 2.9 18 15.28 22.61 11.88 4.43 23.56 9.94 28.6 20.2a71.33 71.33 0 0 1 3.75 9.72c2.08 6.3 4 12.26 11.08 18.42l1.2 1 1.32-.87c24.72-16.26 49.73-44 50-44.3l1.45-1.62-6.53-5.41a3.73 3.73 0 0 0-4.75-.11ZM475.48 188.61c1.55-3.74 5.75-7 7.37-7.47 1.19 1.12 3.2 3.33 3.56 5.27.27 1.43-2.21 4.58-5.7 6.36-2.14 1.09-4 1.33-4.75.59-.42-.44-1.7-1.8-.48-4.75ZM479 212a12.27 12.27 0 0 0-4.67 4.06c-1.47 2-7 9.73-9.37 13.05l-1.77-1c1.74-3.71 5.75-12.29 6.8-14.57a12.15 12.15 0 0 0 1.26-6c0-1.59 0-3 1.84-6.14l2.16-3.69a6.71 6.71 0 0 0 2 .33 12.07 12.07 0 0 0 5.36-1.46c4.41-2.25 8.68-6.82 7.92-10.87-.55-2.88-2.75-5.48-4.22-6.95l2.31-4c.45 0 1.9.19 5.59 2.35s4.57 3.34 4.78 3.73l-8.06 13.76a29 29 0 0 0-10 6c-2.9 2.69-4 5-3.29 6.93a4 4 0 0 0 2.27 2.36 5.06 5.06 0 0 0 1.44.34A8.93 8.93 0 0 1 479 212Zm24.15 41.82c1 3.19 1.82 5.27 1.91 5.49l3.88-1.58c-.06-.13-5.64-14-4.92-26.28v-.51l-10.28-23a6 6 0 0 0-3.41-3.21 5.91 5.91 0 0 0-4.61.18c-2.42 1.12-3.6 1.18-3.95 1.15 1.07-2.33 9.12-8.36 13.17-7.93.56.06 1.51.16 1.41 2.69v.73l.43.6c16.35 22.17 32.08 48.72 29 52.94-14 19.07-46.41 23.43-54.94 24.27a23.09 23.09 0 0 0-2.83-9 81.12 81.12 0 0 1 3.21-4 27.47 27.47 0 0 0 14.18 3.81c7 0 13.72-2.45 18-6.39l-2.86-3.07c-5 4.65-16.85 7.81-26.49 2.44 10.67-11.79 19.95-14.66 29.06-9.33Zm-41.68.78c4.6-.3 9.12 1 11.7 3.28a94.16 94.16 0 0 0-7.69 8.83 23.13 23.13 0 0 0-13.91-7.92c3.12-3.32 7.73-4.06 9.86-4.19ZM375 219.33l-4.14.66a34 34 0 0 0 2.56 7.91 96.61 96.61 0 0 1-13.94 17.28l-.34.41c-8.71 13.74-13.07 27.1-11.66 35.73l.22 1.35 1.3.33a13.26 13.26 0 0 1 8.6 6.49 5.58 5.58 0 0 1-.59 4.44l-.35.54v.63c0 .05 0 4.25-2.81 6.61-2 1.68-5.12 2.12-9.23 1.3a4.59 4.59 0 0 1-3.13-2.19c-3-4.8-1.28-15.56-.35-19.3l.09-.37v-.37C339 261.08 346.72 232 351.61 218c1.43-4.09 3.68-6.82 6.32-7.68 27.87-8.7 45.45 12.66 51.36 21.54-1.27 0-2.5.14-3.68.23-1.74.14-3.42.27-5 .27-8.42 0-15.78-6.64-17.75-12.78l-4 1.28c2.27 7.06 9.85 14.31 19.13 15.5a35.05 35.05 0 0 0-.35 9.5c-19.46-8.5-22.51-25.76-22.64-26.53Zm-35.56 200.11c-8.6-4.3-15.52-18.08-22.22-31.4-5.55-11-10.79-21.46-17.22-27.61a11.08 11.08 0 0 0-9.35-3.23c-8.23 1-18.13 10.42-29.57 28.25L255.8 383c6.05-14.93 20.37-39 28.41-50.55a5.71 5.71 0 0 1 4.59-2.35 5.4 5.4 0 0 1 4.52 2.51c7 10.81 21.08 30.21 37.22 38.76 17.32 9.18 17.41 17.05 15.23 30.87a8.14 8.14 0 0 1-5.06 1.84l.11 4.18c10.55-.29 13.35-10.36 16.32-21 2.64-9.46 5.68-20.05 14.51-25.27a23.21 23.21 0 0 0 11.29 9.37l1.54-3.89a19 19 0 0 1-12.14-15.89 24.75 24.75 0 0 1 4.58-17.7c-.25 11.49 1.7 21.63 7.5 27.88S398.11 371 408 371c.51 0 1 0 1.56-.05-18.14 30.87-54.45 56.31-70.12 48.49Zm199.35-15.68c-5.22-5-6.76-9.67-8.68-15.5a74.64 74.64 0 0 0-4-10.26c-5.69-11.57-18.21-17.54-30.9-22.27-13.79-5.14-12.84-20.06-12.5-23.07a55.58 55.58 0 0 0 3.88-4.72l-3.39-2.45c-11.07 15.33-45.58 39.59-72.37 41.24-10.08.65-17.93-2-23.37-7.9-19.43-20.92 10.81-95.66 11.12-96.41l-3.87-1.59c-.28.68-1.88 4.63-4 10.62a75.45 75.45 0 0 1 .59-24.07 49.86 49.86 0 0 0 7.15 3.31 26.56 26.56 0 0 0 3.46 8.47 19.21 19.21 0 0 0 2.62 3.19c-6.15 25.73 12 39.84 12.2 40l2.52-3.34c-.66-.5-15.37-12.07-11-33.92a17.4 17.4 0 0 0 6.68 2.06l.42-4.16a13 13 0 0 1-9.9-6.11c-4.11-6.26-4.33-15.26-3.18-20.39 1.19-.05 2.4-.13 3.67-.22 10.49-.8 22.36-1.71 31.11 23l.28.77.72.38a22.56 22.56 0 0 0 9.69 2.26 19 19 0 1 1-19 19h-4.19a23.19 23.19 0 0 0 16.76 22.25 43.45 43.45 0 0 1-6.66 1.87l.79 4.11c.11 0 1.51-.29 3.29-.76-1.89 3.54-3.62 6.94-5.14 10.09a378.4 378.4 0 0 0-8.94 2.52c.77-1.55 1.59-3.13 2.44-4.75l-3.7-2.01q-2.29 4.37-4.2 8.36c-4.13 1.29-7.76 2.5-10.78 3.54-8.15-6.35-15.4-7.13-15.72-7.16l-.41 4.17a28.93 28.93 0 0 1 11.29 4.71c-2.45.89-4 1.47-4.3 1.61l1.53 3.9c.52-.21 52.76-20.55 89.31-18.78 5.08.24 7.79 4.88 12.15 13.06l.43.8c4.58 8.6 28.32 42.88 44.71 44.71 13.73 1.55 29.79-9.79 34.82-13.66l2.9 2.4c-5.55 5.99-25.92 27.34-46.33 41.1Z" class="cls-1" transform="translate(-165.81 -170.55)"/><path d="m490.43 328.67-1.24 4c.13 0 13.24 4.27 14 20.37l4.18-.2c-.9-19.01-16.79-24.12-16.94-24.17ZM328.92 382.28l-2-.7-2-.7c-1.68 4.74-2.27 15.22 7.54 21l2.13-3.61c-9.21-5.45-5.82-15.57-5.67-15.99ZM424.59 274.77l4.12.71a10.29 10.29 0 0 1 2.25-4.17c3.14-4.21 5.2-8.35-1.62-16.35l-3.19 2.72c5.21 6.1 3.71 8.1 1.45 11.12a13.75 13.75 0 0 0-3.01 5.97ZM351.57 239.51l3.92 1.47a155.89 155.89 0 0 1 7.39-16.49l-3.69-2a154.6 154.6 0 0 0-7.62 17.02ZM440.14 281.17c.25.4 1 1.79-.11 2.62l2.53 3.34c2.48-1.89 2.95-5.25 1.14-8.17s-4.84-4-7.33-2.74l1.86 3.75c.55-.27 1.42.41 1.91 1.2ZM419.79 342l1.74 3.81c.22-.1 22.64-10.26 41-15.25l-1.09-4C442.75 331.6 420 341.89 419.79 342ZM363.28 399.38l2.34 3.47c.48-.33 12-8.12 17.55-16.39l-3.48-2.33c-5.09 7.58-16.3 15.17-16.41 15.25ZM412.21 316.13l2.26-3.53c-11.61-7.44-14.4-21.3-14.43-21.44l-4.11.78c.12.64 3.12 15.75 16.28 24.19ZM179.38 231.56a6.51 6.51 0 0 0-2.76-1.1l-2.17-.38-4.25-.75-4.39 24.82 2.43.43 4.37.77a6.23 6.23 0 0 0 2.94-.1 4.21 4.21 0 0 0 2.12-1.45 6.16 6.16 0 0 0 1.11-2.69l.6-3.38a4.64 4.64 0 0 0-.1-2.21 3.81 3.81 0 0 0-1.09-1.71 5.24 5.24 0 0 0-2-1.11 5 5 0 0 0 2.09-.4 3.62 3.62 0 0 0 1.48-1.2 4.38 4.38 0 0 0 .78-1.91l.47-2.66a5.89 5.89 0 0 0-.13-2.89 4.15 4.15 0 0 0-1.5-2.08ZM174.6 250a1.58 1.58 0 0 1-.65 1.1 1.75 1.75 0 0 1-1.29.2l-1.89-.34 1.21-6.85 1.83.32a1.87 1.87 0 0 1 .89.39 1.38 1.38 0 0 1 .47.77 2.48 2.48 0 0 1 0 1.09Zm2.18-13.74-.47 2.66a2 2 0 0 1-.66 1.29 1.48 1.48 0 0 1-1.25.27l-1.73-.3 1.08-6.09 1.74.3a1.47 1.47 0 0 1 1.29 1.87Z" class="cls-1" transform="translate(-165.81 -170.55)"/><path d="m30.18 64.07-4.16-1.06-6.22 24.42 1.85.47 9 2.29 1.04-4.06-6.69-1.7 1.54-6.05 5.85 1.49 1.03-4.05-5.85-1.48 1.58-6.2 6.68 1.69 1.04-4.06-6.69-1.7zM54.99 75.84l1.31-3.99-7.67-2.51-2.98-.97-7.84 23.95 4.09 1.34 6.56 2.15 1.3-3.99-6.56-2.15 1.95-5.93 5.73 1.87 1.3-3.96-5.73-1.88 1.98-6.08 6.56 2.15z" class="cls-1"/><path d="M239.43 249.67a8.34 8.34 0 0 0-3-1.91l-1.85-.73-3.92-1.55-9.27 23.45 3.92 1.55 3.92-9.91 1.34.53-1 11.06 4.29 1.69.7-11.92a5 5 0 0 0 2.8-1.07 6.25 6.25 0 0 0 1.88-2.67l1.08-2.75a5.92 5.92 0 0 0 .43-3.15 4.84 4.84 0 0 0-1.32-2.62Zm-3.3 4.39-1 2.61a1.77 1.77 0 0 1-.52.75 1.42 1.42 0 0 1-.78.31 2.15 2.15 0 0 1-1-.17l-2.1-.83 2.32-5.87 2.1.83a2 2 0 0 1 .81.56 1.34 1.34 0 0 1 .34.81 2.18 2.18 0 0 1-.17 1Z" class="cls-1" transform="translate(-165.81 -170.55)"/><path d="m85.79 106.23 7.68-8.8-6.41 14.26 3.5 1.57 10.33-22.99-3.67-1.65-9.52 10.74 1.8-14.21-3.76-1.69-10.33 22.99 3.57 1.61 6.16-13.71-1.31 11 1.96.88z" class="cls-1"/><path d="M258.58 274.69h25.2v4.3h-25.2z" class="cls-1" transform="rotate(-64.91 54.195 321.93)"/><path d="m111.57 123.11 7.9 3.69 1.75-3.74-5.94-2.77 8.91-19.09-3.89-1.82-10.66 22.83 1.93.9zM128.27 130.83l8.48 3.79 1.72-3.83-6.3-2.82 2.55-5.69 5.5 2.46 1.71-3.81-5.51-2.46 2.61-5.84 6.3 2.81 1.71-3.83-6.81-3.04-3.41-1.53-10.29 23.01 1.74.78zM363.25 131.23l10.77 23.25 4.5-1.16-1.77-25.56-4.42 1.13 2 17.46-6.67-16.26-4.41 1.14z" class="cls-1"/><path d="M554.36 315.12a6.34 6.34 0 0 0 1.76 2.78 5 5 0 0 0 2.74 1.2 8.88 8.88 0 0 0 6.58-2.24 5 5 0 0 0 1.44-2.63 6.29 6.29 0 0 0-.31-3.27l-4.47-13.13a6.44 6.44 0 0 0-1.76-2.79 4.86 4.86 0 0 0-2.74-1.2 9 9 0 0 0-6.58 2.24 4.85 4.85 0 0 0-1.44 2.63 6.32 6.32 0 0 0 .31 3.28Zm.12-16.16a2.35 2.35 0 0 1 1-.61 2.38 2.38 0 0 1 1.16-.12 1.65 1.65 0 0 1 .92.48 2.55 2.55 0 0 1 .61 1l4.12 12.11a2.56 2.56 0 0 1 .15 1.19 1.62 1.62 0 0 1-.44.94 2.61 2.61 0 0 1-2.14.73 1.79 1.79 0 0 1-.91-.48 2.56 2.56 0 0 1-.61-1l-4.13-12.1a2.63 2.63 0 0 1-.14-1.18 1.73 1.73 0 0 1 .41-.92ZM581.19 311.25l-4.19-9.81 1.33-.56 7 8.58 4.24-1.8-7.87-9a5 5 0 0 0 1.25-2.73 6.32 6.32 0 0 0-.55-3.22l-1.08-2.71a6 6 0 0 0-1.91-2.55 4.85 4.85 0 0 0-2.8-.94 8.29 8.29 0 0 0-3.48.76l-1.83.78-1.83.78-.27.12-1.77.75 9.88 23.2Zm-8.27-19.4L575 291a2.16 2.16 0 0 1 1-.18 1.41 1.41 0 0 1 .81.34 2.16 2.16 0 0 1 .58.83l1.11 2.58a1.88 1.88 0 0 1 .15.91 1.32 1.32 0 0 1-.34.76 2.18 2.18 0 0 1-.81.57l-2.07.88ZM600.4 280.5a6.35 6.35 0 0 0-2.14-2.5 5 5 0 0 0-2.9-.8 9 9 0 0 0-6.18 3.18 4.93 4.93 0 0 0-1 2.81 6.39 6.39 0 0 0 .79 3.2l6.34 12.34a6.24 6.24 0 0 0 2.14 2.49 5 5 0 0 0 2.89.8 7.91 7.91 0 0 0 3.41-1 8 8 0 0 0 2.78-2.21 5 5 0 0 0 1-2.82 6.28 6.28 0 0 0-.78-3.19Zm2.24 16a2.57 2.57 0 0 1-2 1 1.63 1.63 0 0 1-1-.34 2.48 2.48 0 0 1-.76-.93l-5.85-11.38a2.58 2.58 0 0 1-.31-1.14 1.65 1.65 0 0 1 .29-1 2.27 2.27 0 0 1 .88-.75 2.46 2.46 0 0 1 1.13-.29 1.66 1.66 0 0 1 1 .34 2.6 2.6 0 0 1 .75.92l5.85 11.38a2.68 2.68 0 0 1 .32 1.16 1.75 1.75 0 0 1-.3 1.01Z" class="cls-1" transform="translate(-165.81 -170.55)"/><path d="m446.21 96.55 8.08 13.21-12.74-10.36-2.88 1.77 13.15 21.47 3.35-2.05-7.63-12.48 12.24 9.66 2.92-1.79-13.15-21.48-3.34 2.05zM471.73 104.69l-3.67-5.05 4.88-3.54-2.46-3.38-4.88 3.55-3.76-5.18 5.58-4.05-2.47-3.4-5.58 4.06-3.48 2.53 14.83 20.38 1.54-1.12 7.51-5.46-2.46-3.4-5.58 4.06zM487.16 92.58l-6.68-17.1-2.51-2.87-7.79 6.83 2.72 3.11 4.5-3.96 6.64 17.14 2.52 2.87 8.15-7.16-2.71-3.1-4.84 4.24zM506.7 78.84l2.82-3.25-19.01-16.54-2.83 3.25 8.13 7.06-2.23 2.56-8.13-7.06-2.82 3.25 19.02 16.53 2.82-3.24-7.85-6.82 2.23-2.57 7.85 6.83z" class="cls-1"/></svg>